<?xml version="1.0" encoding="UTF-8" standalone="no"?>
<!-- Created with Inkscape (http://www.inkscape.org/) -->

<svg
   xmlns:dc="http://purl.org/dc/elements/1.1/"
   xmlns:cc="http://creativecommons.org/ns#"
   xmlns:rdf="http://www.w3.org/1999/02/22-rdf-syntax-ns#"
   xmlns:svg="http://www.w3.org/2000/svg"
   xmlns="http://www.w3.org/2000/svg"
   xmlns:sodipodi="http://sodipodi.sourceforge.net/DTD/sodipodi-0.dtd"
   xmlns:inkscape="http://www.inkscape.org/namespaces/inkscape"
   width="1000"
   height="1000"
   id="svg4525"
   version="1.1"
   inkscape:version="0.91 r13725"
   viewBox="0 0 1000 1000"
   sodipodi:docname="director.svg">
  <defs
     id="defs5498" />
  <sodipodi:namedview
     inkscape:window-height="1017"
     inkscape:window-width="1920"
     inkscape:pageshadow="2"
     inkscape:pageopacity="0.0"
     borderopacity="1.0"
     bordercolor="#666666"
     pagecolor="#ffffff"
     id="base"
     showgrid="false"
     showguides="true"
     inkscape:guide-bbox="true"
     inkscape:zoom="0.454"
     inkscape:cx="227.97357"
     inkscape:cy="500"
     inkscape:window-x="-8"
     inkscape:window-y="-8"
     inkscape:current-layer="layer1"
     inkscape:window-maximized="1"
     units="mm">
    <sodipodi:guide
       orientation="horizontal"
       position="200"
       id="guide5596" />
  </sodipodi:namedview>
  <metadata
     id="metadata5594">
    <rdf:RDF>
      <cc:Work
         rdf:about="">
        <dc:format>image/svg+xml</dc:format>
        <dc:type
           rdf:resource="http://purl.org/dc/dcmitype/StillImage" />
        <dc:title></dc:title>
      </cc:Work>
    </rdf:RDF>
  </metadata>
  <g
     inkscape:label="Layer 1"
     inkscape:groupmode="layer"
     id="layer1">
    <g
       id="g4228"
       transform="matrix(14.104674,0,0,-14.104674,325.77904,606.55873)"
       style="fill:#ffffff" />
    <path
       d="m 753.45756,524.02659 -506.91513,0 0,-197.20321 506.91513,0 0,197.20321 z m -253.46569,185.87263 -139.36386,-94.9358 278.74398,0 -139.38012,94.9358 z m 384.01874,-94.9358 0,-90.93683 -32.82115,0 0,-94.80581 0,-429.1132656 -97.7319,0 0,80.9230476 -506.91513,0 0,-80.9230476 -97.7319,0 0,523.9190756 -32.82114,0 0,90.93683 80.90679,0 221.22979,150.67809 -223.03421,151.89735 -59.49747,0 0,82.35363 102.20234,0 0,-0.2119 0.13002,0.195 262.06519,-178.47617 262.08146,178.47617 0.13002,-0.195 0,0.2119 102.20234,0 0,-82.35363 -59.51372,0 -223.03421,-151.89735 221.24603,-150.67809 80.90685,0 z"
       style="fill:#000000;fill-opacity:1;fill-rule:nonzero;stroke:none"
       id="path4260"
       inkscape:connector-curvature="0" />
  </g>
</svg>
