<?xml version="1.0" encoding="UTF-8" standalone="no"?>
<!-- Created with Inkscape (http://www.inkscape.org/) -->

<svg
   xmlns:dc="http://purl.org/dc/elements/1.1/"
   xmlns:cc="http://creativecommons.org/ns#"
   xmlns:rdf="http://www.w3.org/1999/02/22-rdf-syntax-ns#"
   xmlns:svg="http://www.w3.org/2000/svg"
   xmlns="http://www.w3.org/2000/svg"
   xmlns:sodipodi="http://sodipodi.sourceforge.net/DTD/sodipodi-0.dtd"
   xmlns:inkscape="http://www.inkscape.org/namespaces/inkscape"
   width="1000"
   height="1000"
   id="svg4525"
   version="1.1"
   inkscape:version="0.91 r13725"
   viewBox="0 0 1000 1000"
   sodipodi:docname="genre.svg">
  <defs
     id="defs5498" />
  <sodipodi:namedview
     inkscape:window-height="1017"
     inkscape:window-width="1920"
     inkscape:pageshadow="2"
     inkscape:pageopacity="0.0"
     borderopacity="1.0"
     bordercolor="#666666"
     pagecolor="#ffffff"
     id="base"
     showgrid="false"
     showguides="true"
     inkscape:guide-bbox="true"
     inkscape:zoom="0.454"
     inkscape:cx="227.97357"
     inkscape:cy="500"
     inkscape:window-x="-8"
     inkscape:window-y="-8"
     inkscape:current-layer="layer1"
     inkscape:window-maximized="1"
     units="mm">
    <sodipodi:guide
       orientation="horizontal"
       position="200"
       id="guide5596" />
  </sodipodi:namedview>
  <metadata
     id="metadata5594">
    <rdf:RDF>
      <cc:Work
         rdf:about="">
        <dc:format>image/svg+xml</dc:format>
        <dc:type
           rdf:resource="http://purl.org/dc/dcmitype/StillImage" />
        <dc:title></dc:title>
      </cc:Work>
    </rdf:RDF>
  </metadata>
  <g
     inkscape:label="Layer 1"
     inkscape:groupmode="layer"
     id="layer1">
    <g
       id="g4224"
       transform="matrix(15.845894,0,0,-15.845894,698.29556,477.02583)"
       style="fill:#ffffff">
      <path
         style="fill:#000000;fill-opacity:1;fill-rule:nonzero;stroke:none"
         d="m 597.46289,185.08203 c 0,0 -121.92016,23.79492 -271.68359,23.79492 -149.76343,0 -271.683597,-23.70898 -271.683597,-23.70898 17.941145,345.11316 -7.02411,328.21565 271.726567,571.5918 l 0.0137,-0.16993 C 604.48788,513.19959 579.52175,530.18109 597.46289,185.08203 Z m 36.6875,96.0293 c -5.76881,125.39055 -10.32566,196.78866 -46.81445,264.46289 -8.95647,16.5871 -19.42103,32.4413 -32.11524,48.67578 6.26248,1.46689 12.56631,3.29989 18.8711,5.55664 59.97307,21.59426 96.7153,72.10316 82.06054,112.85156 L 498.80078,656.02734 c -17.05255,16.74225 -36.57401,34.83901 -59.11328,55.10743 16.23448,30.29684 35.17877,64.45937 57.04102,103.7832 l 0.0703,-0.16992 C 841.41833,680.10483 812.16378,687.62307 945.9043,368.98438 c 0,0 -122.77986,-18.90112 -263.68555,-69.60743 -16.53068,-5.95217 -32.59553,-12.07367 -48.06836,-18.26562 z m -453.57617,21.59765 c 12.51536,-0.12925 25.87859,2.84981 37.21875,8.79493 30.25452,15.83955 52.34375,68.83007 52.34375,68.83007 0,0 -144.98323,33.38658 -131.78125,-50.4375 2.8562,-18.1245 21.35981,-26.97207 42.21875,-27.1875 z m 290.4082,0 c 20.8577,0.21543 39.3577,9.063 42.20508,27.1875 13.21608,83.82408 -131.76563,50.4375 -131.76562,50.4375 0,0 22.08727,-52.99052 52.34179,-68.83007 11.34016,-5.94512 24.70413,-8.92418 37.21875,-8.79493 z m 287.7168,129.11329 c 31.32269,-0.15869 63.87876,18.75265 58.88086,44.89257 -15.95239,83.33042 -141.07422,2.83594 -141.07422,2.83594 0,0 38.73168,-42.36998 72.55469,-47.05273 3.1709,-0.43769 6.39839,-0.65937 9.63867,-0.67578 z m -548.33789,96.34179 230.83594,0 c 0,43.30135 -51.67895,78.39453 -115.41797,78.39453 -63.73902,0 -115.41797,-35.09318 -115.41797,-78.39453 z"
         transform="matrix(0.07089848,0,0,-0.07089848,-47.963243,33.99939)"
         id="path4226"
         inkscape:connector-curvature="0" />
    </g>
    <g
       id="g4228"
       transform="matrix(14.104674,0,0,-14.104674,325.77904,606.55873)"
       style="fill:#ffffff" />
  </g>
</svg>
